<svg width="341" height="101" viewBox="0 0 341 101" fill="none" xmlns="http://www.w3.org/2000/svg">
<path d="M330.049 0H173.24C171.446 0 169.686 0.482261 168.143 1.39626L9.42159 95.4189C6.79611 96.9741 7.89903 101 10.9506 101H167.76C169.554 101 171.314 100.518 172.857 99.6037L331.578 5.58112C334.204 4.02585 333.101 0 330.049 0Z" fill="#162233"/>
<path d="M165.713 30.918C166.726 31.1393 166.894 31.7154 166.216 32.6465C165.539 33.5778 164.192 34.6418 162.175 35.8385C160.352 36.9199 158.414 37.8746 156.361 38.7021C154.362 39.5109 152.365 40.1445 150.368 40.6025C148.371 41.0609 146.543 41.2857 144.884 41.2768L134.319 41.2211L168.493 21L178.505 21.0818C180.148 21.0952 181.186 21.3273 181.621 21.7782C182.079 22.2291 181.946 22.8503 181.22 23.6419C180.518 24.4338 179.325 25.3292 177.641 26.3284C175.664 27.501 173.628 28.4793 171.533 29.263C169.46 30.0473 167.52 30.5989 165.713 30.918ZM159.324 29.3531L163.789 29.3842C164.951 29.3923 166.202 29.1867 167.544 28.7673C168.918 28.329 170.287 27.7056 171.65 26.8974C173.012 26.0897 173.754 25.4623 173.874 25.0156C173.994 24.5686 173.475 24.3408 172.316 24.3317L167.862 24.2976L159.324 29.3531ZM149.772 37.9614C150.962 37.9683 152.275 37.7415 153.711 37.2811C155.169 36.821 156.616 36.1658 158.049 35.3158C159.515 34.4468 160.306 33.7689 160.422 33.2819C160.571 32.7756 160.052 32.5187 158.865 32.5107L154.044 32.4794L144.834 37.933L149.772 37.9614Z" fill="#EFEFEF"/>
<path d="M178.225 37.5707L168.559 37.5141L160.468 41.3593L155.334 41.3322L198.029 21.212L203.651 21.2578L178.498 41.4547L173.356 41.4276L178.225 37.5707ZM182.345 34.3271L192.996 25.8889L175.332 34.2828L182.345 34.3271Z" fill="#EFEFEF"/>
<path d="M197.561 31.3663C200.877 29.3908 204.365 27.6317 208.024 26.0888C211.733 24.5287 215.224 23.3266 218.497 22.4818C221.823 21.6188 224.626 21.1972 226.908 21.216C229.579 21.2378 230.959 21.8284 231.052 22.9878C231.145 24.1473 229.899 25.7406 227.314 27.7694L221.796 27.7293C222.848 26.7702 223.269 26.0483 223.064 25.5634C222.879 25.0786 222.136 24.8313 220.832 24.8212C219.439 24.8106 217.727 25.0779 215.698 25.6238C213.725 26.151 211.594 26.9095 209.305 27.9001C207.04 28.8914 204.781 30.0579 202.53 31.3998C200.31 32.7234 198.645 33.8961 197.537 34.9177C196.483 35.9205 196.03 36.7039 196.178 37.2677C196.381 37.8125 197.185 38.0888 198.589 38.097C199.901 38.1047 201.453 37.8711 203.246 37.3968C205.093 36.9036 207.095 36.179 209.252 35.2232L214.788 35.2576C210.556 37.304 206.462 38.8985 202.511 40.0398C198.611 41.1633 195.3 41.7185 192.58 41.7042C190.274 41.692 188.913 41.2475 188.496 40.3708C188.135 39.4748 188.721 38.244 190.252 36.679C191.805 35.115 194.242 33.3438 197.561 31.3663Z" fill="#EFEFEF"/>
<path d="M221.854 41.6841L228.06 32.702L213.132 41.6381L208.314 41.6125L241.772 21.5981L246.543 21.6369L231.601 30.5815L255.181 21.7074L260.917 21.7541L234.638 31.558L227.918 41.7163L221.854 41.6841Z" fill="#EFEFEF"/>
<path d="M118.823 61.8188L110.161 66.9581L118.471 66.9722L112.978 70.235L104.656 70.2249L95.461 75.6806L104.869 75.685L99.2057 79.05H84.7944L119.515 58.4635L133.784 58.5045L128.169 61.8413L118.823 61.8188Z" fill="#EFEFEF"/>
<path d="M124.799 79.0501H119.859L132.318 64.9672L108.649 79.0501H103.687L138.221 58.5173L143.135 58.5314L130.667 72.6094L154.236 58.5634L159.127 58.5773L124.799 79.0501Z" fill="#EFEFEF"/>
<path d="M172.369 58.6447C174.919 58.652 176.458 59.0751 176.987 59.9139C177.539 60.7526 177.039 61.9491 175.488 63.5037C173.992 65.0395 171.54 66.8277 168.129 68.8695C164.716 70.9131 161.187 72.705 157.542 74.2449C153.95 75.7668 150.47 76.948 147.103 77.7881C143.757 78.6291 140.796 79.05 138.221 79.05H129.639L163.872 58.6202L172.369 58.6447ZM143.891 75.5566C146.462 75.5579 149.428 74.9728 152.787 73.8019C156.143 72.6323 159.596 70.9854 163.145 68.8625C166.69 66.7415 168.756 65.0878 169.345 63.8995C169.966 62.6922 169 62.0857 166.446 62.0796L162.995 62.0714L140.418 75.555L143.891 75.5566Z" fill="#EFEFEF"/>
</svg>
