<svg width="177" height="59" viewBox="0 0 177 59" fill="none" xmlns="http://www.w3.org/2000/svg">
<path d="M81.7134 9.91804C82.7261 10.1393 82.8937 10.7154 82.2162 11.6465C81.5385 12.5778 80.1915 13.6418 78.1745 14.8385C76.3518 15.9199 74.414 16.8746 72.3608 17.7021C70.3623 18.5109 68.3647 19.1445 66.3684 19.6025C64.3711 20.0609 62.5431 20.2857 60.8844 20.2768L50.3188 20.2211L84.4932 0L94.5048 0.0817654C96.1476 0.0952086 97.1861 0.327258 97.6212 0.778158C98.0793 1.22906 97.9458 1.85032 97.2203 2.64193C96.5179 3.43376 95.3248 4.32917 93.6408 5.32838C91.6641 6.50103 89.6282 7.4793 87.5331 8.26298C85.4598 9.04731 83.5198 9.59893 81.7134 9.91804ZM75.3239 8.35311L79.7888 8.38419C80.9506 8.39234 82.2023 8.18672 83.5443 7.76734C84.918 7.329 86.2866 6.70555 87.6498 5.89741C89.0124 5.08971 89.7536 4.46228 89.8738 4.01556C89.994 3.56863 89.4747 3.34077 88.3158 3.33173L83.8619 3.29757L75.3239 8.35311ZM65.7723 16.9614C66.9621 16.9683 68.275 16.7415 69.7109 16.2811C71.1692 15.821 72.6155 15.1658 74.0494 14.3158C75.5151 13.4468 76.3057 12.7689 76.4219 12.2819C76.5706 11.7756 76.0516 11.5187 74.8647 11.5107L70.0441 11.4794L60.8339 16.933L65.7723 16.9614Z" fill="#EFEFEF"/>
<path d="M94.2246 16.5707L84.5588 16.5141L76.4676 20.3593L71.334 20.3322L114.029 0.212006L119.651 0.25784L94.4983 20.4547L89.3559 20.4276L94.2246 16.5707ZM98.3446 13.3271L108.996 4.88894L91.3323 13.2828L98.3446 13.3271Z" fill="#EFEFEF"/>
<path d="M113.561 10.3663C116.877 8.39079 120.365 6.6317 124.024 5.08881C127.733 3.52873 131.224 2.32656 134.497 1.48184C137.823 0.618822 140.626 0.197228 142.908 0.21596C145.579 0.237778 146.959 0.828402 147.052 1.98783C147.145 3.14726 145.899 4.74062 143.314 6.76945L137.796 6.72933C138.848 5.77023 139.269 5.04827 139.064 4.56343C138.879 4.07859 138.136 3.83132 136.832 3.82119C135.439 3.81061 133.727 4.07792 131.698 4.62381C129.725 5.15096 127.594 5.90951 125.305 6.90013C123.04 7.8914 120.781 9.05789 118.53 10.3998C116.31 11.7234 114.645 12.8961 113.537 13.9177C112.483 14.9205 112.03 15.7039 112.178 16.2677C112.381 16.8125 113.185 17.0888 114.589 17.097C115.901 17.1047 117.453 16.8711 119.246 16.3968C121.093 15.9036 123.095 15.179 125.252 14.2232L130.788 14.2576C126.556 16.304 122.462 17.8985 118.511 19.0398C114.611 20.1633 111.3 20.7185 108.58 20.7042C106.274 20.692 104.913 20.2475 104.496 19.3708C104.135 18.4748 104.721 17.244 106.252 15.679C107.805 14.115 110.242 12.3438 113.561 10.3663Z" fill="#EFEFEF"/>
<path d="M137.854 20.6841L144.06 11.702L129.132 20.6381L124.314 20.6125L157.772 0.598114L162.543 0.636903L147.601 9.58153L171.181 0.70742L176.917 0.754146L150.638 10.558L143.918 20.7163L137.854 20.6841Z" fill="#EFEFEF"/>
<path d="M34.8229 40.8188L26.1612 45.9581L34.4707 45.9722L28.9783 49.235L20.656 49.2249L11.461 54.6806L20.8688 54.685L15.2057 58.05H0.794434L35.5145 37.4635L49.7844 37.5045L44.1687 40.8413L34.8229 40.8188Z" fill="#EFEFEF"/>
<path d="M40.7988 58.0501H35.859L48.3181 43.9672L24.6488 58.0501H19.6865L54.2214 37.5173L59.1349 37.5314L46.6665 51.6094L70.2357 37.5634L75.1272 37.5773L40.7988 58.0501Z" fill="#EFEFEF"/>
<path d="M88.3694 37.6447C90.9195 37.652 92.4581 38.0751 92.9867 38.9139C93.5385 39.7526 93.0392 40.9491 91.4882 42.5037C89.9921 44.0395 87.5398 45.8277 84.1294 47.8695C80.7156 49.9131 77.1866 51.705 73.542 53.2449C69.9495 54.7668 66.4697 55.948 63.1033 56.7881C59.7569 57.6291 56.7958 58.05 54.2206 58.05H45.6392L79.8716 37.6202L88.3694 37.6447ZM59.8912 54.5566C62.4622 54.5579 65.4279 53.9728 68.7873 52.8019C72.1434 51.6323 75.5961 49.9854 79.1451 47.8625C82.6904 45.7415 84.7562 44.0878 85.345 42.8995C85.9662 41.6922 85.0003 41.0857 82.4461 41.0796L78.9947 41.0714L56.4175 54.555L59.8912 54.5566Z" fill="#EFEFEF"/>
</svg>
