<svg width="341" height="101" viewBox="0 0 341 101" fill="none" xmlns="http://www.w3.org/2000/svg">
<path d="M330.049 0H173.24C171.446 0 169.686 0.482261 168.143 1.39626L9.42159 95.4189C6.79611 96.9741 7.89903 101 10.9506 101H167.76C169.554 101 171.314 100.518 172.857 99.6037L331.578 5.58112C334.204 4.02585 333.101 0 330.049 0Z" fill="#24374D"/>
<path d="M181.983 20.1062L176.383 23.426L167.575 23.3583L158.664 28.6341L165.433 28.6813L159.906 31.9568L153.126 31.9128L138.367 40.651L134.087 40.6285L168.951 20L181.983 20.1062Z" fill="#EFEFEF"/>
<path d="M161.19 40.7718L170.053 32.7086L168.053 32.6958L154.504 40.7365L150.243 40.714L184.949 20.1305L192.842 20.1948C194.467 20.2081 195.374 20.5025 195.563 21.0783C195.785 21.6346 195.371 22.3938 194.32 23.356C193.323 24.2992 191.836 25.3577 189.86 26.5323C187.587 27.8837 185.124 29.1058 182.471 30.1985C179.85 31.2726 177.396 32.0108 175.109 32.413L166.106 40.7979L161.19 40.7718ZM173.27 29.6L176.809 29.6243C177.957 29.6322 179.259 29.373 180.715 28.8471C182.203 28.3019 183.755 27.549 185.372 26.5888C186.955 25.6486 187.893 24.922 188.187 24.4087C188.515 23.8761 188.106 23.6053 186.961 23.5965L183.432 23.5695L173.27 29.6Z" fill="#EFEFEF"/>
<path d="M179.155 41.0752C177.181 41.0649 176.127 40.6024 175.996 39.6881C175.864 38.7737 176.654 37.517 178.364 35.9186C180.107 34.3013 182.678 32.4818 186.076 30.461C189.438 28.4618 192.933 26.6736 196.56 25.0959C200.216 23.5004 203.618 22.2606 206.766 21.3759C209.912 20.4921 212.46 20.0585 214.416 20.0744C216.39 20.0906 217.432 20.5533 217.543 21.4623C217.673 22.3715 216.867 23.6286 215.123 25.2347C213.43 26.8223 210.914 28.6123 207.572 30.6056C204.194 32.6206 200.677 34.4286 197.021 36.03C193.414 37.6133 190.029 38.8526 186.866 39.7474C183.699 40.6429 181.129 41.0858 179.155 41.0752ZM185.346 37.3883C186.612 37.3957 188.189 37.1272 190.076 36.5831C191.994 36.0198 194.096 35.22 196.381 34.1841C198.664 33.1492 200.955 31.9465 203.253 30.5766C205.55 29.2077 207.28 28.0135 208.444 26.9936C209.641 25.9547 210.218 25.1586 210.178 24.6049C210.137 24.0513 209.487 23.7694 208.228 23.7598C206.969 23.7501 205.391 24.0148 203.492 24.5542C201.613 25.0941 199.532 25.8802 197.25 26.9127C194.998 27.9262 192.72 29.1188 190.416 30.4902C188.11 31.8626 186.353 33.0707 185.148 34.1142C183.943 35.1583 183.344 35.9681 183.352 36.5435C183.414 37.0995 184.079 37.3811 185.346 37.3883Z" fill="#EFEFEF"/>
<path d="M211.33 41.037L207.135 41.0147L221.157 26.908L197.618 40.9646L193.407 40.9423L227.746 20.4499L231.914 20.4838L217.887 34.5848L241.339 20.5608L245.494 20.5947L211.33 41.037Z" fill="#EFEFEF"/>
<path d="M263.562 20.7715L258.09 24.0544L252.588 24.0122L224.074 41.1045L219.894 41.0822L248.442 23.9802L242.925 23.9377L248.42 20.648L263.562 20.7715Z" fill="#EFEFEF"/>
<path d="M122.721 61.652L113.896 66.8919L121.119 66.904L115.521 70.231L108.287 70.2223L98.9179 75.7847L107.096 75.7885L101.324 79.2199H88.7974L124.166 58.2332L136.569 58.269L130.845 61.6716L122.721 61.652Z" fill="#EFEFEF"/>
<path d="M123.588 79.2199H119.288L133.671 64.8565L109.535 79.2199H105.22L140.427 58.2801L144.701 58.2924L130.314 72.6493L154.359 58.3201L158.616 58.3322L123.588 79.2199Z" fill="#EFEFEF"/>
<path d="M170.138 58.3952C172.359 58.4015 173.594 58.8325 173.846 59.6879C174.117 60.5433 173.383 61.7638 171.642 63.3503C169.954 64.9179 167.368 66.7432 163.885 68.8274C160.398 70.9137 156.873 72.7429 153.311 74.3147C149.799 75.8683 146.471 77.0742 143.327 77.9319C140.201 78.7903 137.516 79.2199 135.273 79.2199H127.801L162.738 58.3741L170.138 58.3952ZM141.089 75.6547C143.328 75.6558 146.059 75.0584 149.279 73.8633C152.496 72.6693 155.918 70.9882 159.542 68.8211C163.163 66.6564 165.377 64.9685 166.188 63.7563C167.031 62.5245 166.341 61.9062 164.116 61.9008L161.111 61.8936L138.064 75.6533L141.089 75.6547Z" fill="#EFEFEF"/>
</svg>
