<svg width="176" height="60" viewBox="0 0 176 60" fill="none">
<path d="M93.9834 0.106176L88.3834 3.42598L79.5753 3.35827L70.6639 8.63412L77.4327 8.68135L71.9058 11.9568L65.1265 11.9128L50.367 20.651L46.0869 20.6285L80.9506 0L93.9834 0.106176Z" fill="#EFEFEF"/>
<path d="M73.19 20.7718L82.0529 12.7086L80.0534 12.6958L66.5039 20.7365L62.2427 20.714L96.9492 0.130463L104.842 0.1948C106.467 0.208071 107.374 0.502509 107.563 1.07834C107.785 1.63461 107.371 2.39375 106.32 3.35602C105.323 4.29917 103.836 5.35772 101.86 6.53233C99.5865 7.88373 97.1238 9.1058 94.4714 10.1985C91.85 11.2726 89.3956 12.0108 87.1087 12.413L78.1057 20.7979L73.19 20.7718ZM85.2699 9.59999L88.8085 9.62429C89.9569 9.63216 91.2593 9.37302 92.715 8.84713C94.2031 8.30188 95.7553 7.54903 97.3719 6.58879C98.9547 5.64856 99.8929 4.92202 100.187 4.40872C100.515 3.87608 100.106 3.60526 98.9606 3.59648L95.4318 3.56949L85.2699 9.59999Z" fill="#EFEFEF"/>
<path d="M91.1552 21.0752C89.1807 21.0649 88.1272 20.6024 87.9956 19.6881C87.8639 18.7737 88.6535 17.517 90.364 15.9186C92.1066 14.3013 94.6781 12.4818 98.0763 10.461C101.438 8.46181 104.933 6.67357 108.56 5.09588C112.216 3.50042 115.618 2.26058 118.766 1.37591C121.912 0.492147 124.46 0.0584602 126.416 0.0744305C128.39 0.0906258 129.432 0.553326 129.543 1.46229C129.673 2.37147 128.867 3.62863 127.123 5.23467C125.43 6.82225 122.914 8.61227 119.572 10.6056C116.194 12.6206 112.677 14.4286 109.021 16.03C105.414 17.6133 102.029 18.8526 98.8657 19.7474C95.6993 20.6429 93.1288 21.0858 91.1552 21.0752ZM97.3456 17.3883C98.6122 17.3957 100.189 17.1272 102.076 16.5831C103.994 16.0198 106.096 15.22 108.381 14.1841C110.664 13.1492 112.955 11.9465 115.253 10.5766C117.55 9.20769 119.28 8.0135 120.444 6.99365C121.641 5.95468 122.218 5.15864 122.178 4.60485C122.137 4.05129 121.487 3.76944 120.228 3.75977C118.969 3.7501 117.391 4.01483 115.492 4.55423C113.613 5.09407 111.532 5.88022 109.25 6.91267C106.998 7.92622 104.72 9.11882 102.416 10.4902C100.11 11.8626 98.3533 13.0707 97.1482 14.1142C95.9426 15.1583 95.3439 15.9681 95.3524 16.5435C95.4141 17.0995 96.0786 17.3811 97.3456 17.3883Z" fill="#EFEFEF"/>
<path d="M123.33 21.037L119.135 21.0147L133.157 6.90796L109.618 20.9646L105.407 20.9423L139.746 0.44986L143.914 0.483839L129.887 14.5848L153.339 0.560755L157.494 0.594717L123.33 21.037Z" fill="#EFEFEF"/>
<path d="M175.562 0.771532L170.09 4.05444L164.588 4.01216L136.074 21.1045L131.894 21.0822L160.442 3.98022L154.925 3.93771L160.42 0.648041L175.562 0.771532Z" fill="#EFEFEF"/>
<path d="M34.7212 41.652L25.8959 46.8919L33.119 46.904L27.521 50.231L20.2866 50.2223L10.9179 55.7847L19.0963 55.7885L13.3239 59.2199H0.797363L36.1656 38.2332L48.5695 38.269L42.8454 41.6716L34.7212 41.652Z" fill="#EFEFEF"/>
<path d="M35.5876 59.2199H31.2883L45.671 44.8565L21.5354 59.2199H17.2197L52.4273 38.2801L56.7006 38.2924L42.314 52.6493L66.3586 38.3201L70.6157 38.3322L35.5876 59.2199Z" fill="#EFEFEF"/>
<path d="M82.1377 38.3952C84.3586 38.4015 85.5941 38.8325 85.8456 39.6879C86.117 40.5433 85.3826 41.7638 83.6419 43.3503C81.9535 44.9179 79.3684 46.7432 75.8846 48.8274C72.3975 50.9137 68.8729 52.7429 65.3108 54.3147C61.7989 55.8683 58.4707 57.0742 55.3271 57.9319C52.2008 58.7903 49.516 59.2199 47.2734 59.2199H39.8013L74.7385 38.3741L82.1377 38.3952ZM53.0893 55.6547C55.3282 55.6558 58.0586 55.0584 61.2787 53.8633C64.4962 52.6693 67.9176 50.9882 71.5422 48.8211C75.163 46.6564 77.3772 44.9685 78.1878 43.7563C79.0312 42.5245 78.3411 41.9062 76.1165 41.9008L73.1111 41.8936L50.0643 55.6533L53.0893 55.6547Z" fill="#EFEFEF"/>
</svg>
