<svg width="187" height="66" viewBox="0 0 187 66" fill="none">
<path d="M141.716 0.114777L135.481 3.80176L125.972 3.72848L116.05 9.58779L123.358 9.6388L117.204 13.2763L109.885 13.2288L93.4525 22.9331L88.832 22.9086L127.646 0L141.716 0.114777Z" fill="#EFEFEF"/>
<path d="M149.409 0.177519L125.564 14.2913C122.943 15.8432 121.333 17.0372 120.737 17.8735C120.178 18.6877 120.63 19.0993 122.093 19.1078C123.577 19.1163 125.406 18.7182 127.578 17.914C129.787 17.0885 132.199 15.9004 134.814 14.3505L158.605 0.252536L163.178 0.289796L139.47 14.347C136.195 16.289 132.99 17.9352 129.855 19.2851C126.777 20.6144 123.955 21.6147 121.391 22.2856C118.847 22.9571 116.711 23.2884 114.983 23.2794C113.276 23.2704 112.296 22.9223 112.044 22.2351C111.813 21.5482 112.422 20.5339 113.871 19.1928C115.357 17.8305 117.745 16.1755 121.036 14.2293L144.853 0.140259L149.409 0.177519Z" fill="#EFEFEF"/>
<path d="M139.84 19.5082L147.333 19.5512L141.216 23.1861L129.136 23.1221L167.56 0.325562L172.09 0.362574L139.84 19.5082Z" fill="#EFEFEF"/>
<path d="M154.779 19.594L162.244 19.637L156.15 23.2654L144.115 23.2017L182.394 0.446594L186.909 0.483359L154.779 19.594Z" fill="#EFEFEF"/>
<path d="M3.94077 66C2.29906 66 1.29044 65.7194 0.915159 65.1582C0.562519 64.5971 0.898809 63.7894 1.92428 62.7349C2.94925 61.6808 4.66869 60.4368 7.08133 59.0034L12.1332 59.0076C10.5667 59.9701 9.61118 60.7316 9.26709 61.2917C8.94539 61.8521 9.32343 62.1324 10.4012 62.1329C11.5011 62.1337 12.802 61.8764 14.3037 61.362C15.8425 60.8251 17.3328 60.1319 18.7743 59.2819C19.9497 58.589 20.7037 58.0189 21.0365 57.5715C21.369 57.1241 21.4193 56.777 21.1869 56.5307C21.0146 56.2619 20.6343 55.9703 20.0452 55.6562C19.2806 55.2076 18.7768 54.7703 18.5341 54.3444C18.3517 53.8965 18.6528 53.2364 19.4373 52.3644C20.2819 51.4704 21.9551 50.2873 24.455 48.8154C26.8022 47.4338 29.192 46.2318 31.6238 45.2095C34.054 44.188 36.3464 43.4123 38.501 42.8821C40.6923 42.3302 42.5893 42.0566 44.1923 42.0614C46.5959 42.0684 47.5446 42.6623 47.0396 43.8431C46.5941 45.0022 44.6787 46.6264 41.2914 48.7169L36.1417 48.7059C37.4562 47.9047 38.2241 47.2475 38.4454 46.7344C38.7269 46.199 38.3438 45.9302 37.2959 45.9274C36.3814 45.9252 35.2488 46.157 33.8976 46.6231C32.5685 47.0892 31.1476 47.7677 29.6349 48.6586C28.576 49.2826 27.8878 49.8067 27.5714 50.2311C27.3149 50.6332 27.2615 50.9685 27.4109 51.2371C27.6205 51.4834 28.0005 51.775 28.5504 52.1113C29.3135 52.5597 29.7969 53.0078 30.0014 53.4552C30.2057 53.9028 29.8975 54.573 29.0773 55.4664C28.2568 56.3599 26.6166 57.5325 24.1554 58.9844C22.0338 60.236 19.7379 61.3985 17.2676 62.4723C14.7956 63.5466 12.3802 64.4085 10.0212 65.0582C7.69883 65.6859 5.67203 66 3.94077 66Z" fill="#EFEFEF"/>
<path d="M72.0609 42.4765L65.7129 46.231L59.53 46.216L26.4507 65.7649H21.752L54.8697 46.2047L48.6699 46.1895L55.0448 42.4275L72.0609 42.4765Z" fill="#EFEFEF"/>
<path d="M57.8714 61.3198L48.6073 61.3145L39.5519 65.7654L34.6338 65.7652L82.3584 42.473L87.7471 42.4885L56.8357 65.7659L51.9048 65.7657L57.8714 61.3198ZM62.913 57.581L75.9631 47.8564L56.1923 57.574L62.913 57.581Z" fill="#EFEFEF"/>
<path d="M78.5242 54.0963C82.3705 51.8137 86.3099 49.778 90.3419 47.9882C94.4289 46.1785 98.1864 44.7799 101.615 43.7916C105.1 42.7824 107.938 42.2812 110.129 42.2875C112.691 42.295 113.823 42.9622 113.527 44.289C113.231 45.6159 111.503 47.4486 108.34 49.7887L103.044 49.778C104.374 48.6729 105.02 47.8437 104.983 47.2898C104.968 46.7359 104.335 46.4576 103.084 46.4546C101.746 46.4513 100.01 46.7684 97.8783 47.4063C95.804 48.0225 93.502 48.9047 90.9717 50.0535C88.4619 51.2028 85.9014 52.5527 83.2901 54.1033C80.7142 55.6327 78.7226 56.9861 77.3161 58.1629C75.9687 59.3177 75.2717 60.2177 75.2257 60.8626C75.2393 61.4853 75.9199 61.7971 77.2673 61.7976C78.526 61.7984 80.0967 61.5213 81.9791 60.9669C83.9199 60.3905 86.0868 59.548 88.4798 58.44L93.7951 58.445C89.0397 60.8159 84.5711 62.6679 80.3903 63.9997C76.2645 65.3106 72.8958 65.9665 70.286 65.9665C68.0731 65.9665 66.9125 65.4656 66.8054 64.4638C66.7578 63.4396 67.7315 62.0264 69.7253 60.225C71.74 58.4245 74.6738 56.3812 78.5242 54.0963Z" fill="#EFEFEF"/>
<path d="M98.4541 65.7669L107.417 55.4342L90.0743 65.7667H85.4482L124.309 42.6273L128.89 42.6406L111.532 52.9826L137.189 42.6646L142.701 42.6806L114.132 54.0821L104.283 65.7672L98.4541 65.7669Z" fill="#EFEFEF"/>
</svg>
