<svg width="341" height="101" viewBox="0 0 341 101" fill="none" xmlns="http://www.w3.org/2000/svg">
<path d="M330.049 0H173.24C171.446 0 169.686 0.482261 168.143 1.39626L9.42159 95.4189C6.79611 96.9741 7.89903 101 10.9506 101H167.76C169.554 101 171.314 100.518 172.857 99.6037L331.578 5.58112C334.204 4.02585 333.101 0 330.049 0Z" fill="#1B2A41"/>
<path d="M204.716 14.1148L198.481 17.8018L188.972 17.7285L179.05 23.5878L186.358 23.6388L180.204 27.2763L172.885 27.2288L156.453 36.9331L151.832 36.9086L190.646 14L204.716 14.1148Z" fill="#EFEFEF"/>
<path d="M212.409 14.1775L188.564 28.2913C185.943 29.8432 184.333 31.0372 183.737 31.8735C183.178 32.6877 183.63 33.0993 185.093 33.1078C186.577 33.1163 188.406 32.7182 190.578 31.914C192.787 31.0885 195.199 29.9004 197.814 28.3505L221.605 14.2525L226.178 14.2898L202.47 28.347C199.195 30.289 195.99 31.9352 192.855 33.2851C189.777 34.6144 186.955 35.6147 184.391 36.2856C181.847 36.9571 179.711 37.2884 177.983 37.2794C176.276 37.2704 175.296 36.9223 175.044 36.2351C174.813 35.5482 175.422 34.5339 176.871 33.1928C178.357 31.8305 180.745 30.1755 184.036 28.2293L207.853 14.1403L212.409 14.1775Z" fill="#EFEFEF"/>
<path d="M202.84 33.5082L210.333 33.5512L204.216 37.1861L192.136 37.1221L230.56 14.3256L235.09 14.3626L202.84 33.5082Z" fill="#EFEFEF"/>
<path d="M217.779 33.594L225.244 33.637L219.15 37.2654L207.115 37.2017L245.394 14.4466L249.909 14.4834L217.779 33.594Z" fill="#EFEFEF"/>
<path d="M66.9408 80C65.2991 80 64.2904 79.7194 63.9152 79.1582C63.5625 78.5971 63.8988 77.7894 64.9243 76.7349C65.9493 75.6808 67.6687 74.4368 70.0813 73.0034L75.1332 73.0076C73.5667 73.9701 72.6112 74.7316 72.2671 75.2917C71.9454 75.8521 72.3234 76.1324 73.4012 76.1329C74.5011 76.1337 75.802 75.8764 77.3037 75.362C78.8425 74.8251 80.3328 74.1319 81.7743 73.2819C82.9497 72.589 83.7037 72.0189 84.0365 71.5715C84.369 71.1241 84.4193 70.777 84.1869 70.5307C84.0146 70.2619 83.6343 69.9703 83.0452 69.6562C82.2806 69.2076 81.7768 68.7703 81.5341 68.3444C81.3517 67.8965 81.6528 67.2364 82.4373 66.3644C83.2819 65.4704 84.9551 64.2873 87.455 62.8154C89.8022 61.4338 92.192 60.2318 94.6238 59.2095C97.054 58.188 99.3464 57.4123 101.501 56.8821C103.692 56.3302 105.589 56.0566 107.192 56.0614C109.596 56.0684 110.545 56.6623 110.04 57.8431C109.594 59.0022 107.679 60.6264 104.291 62.7169L99.1417 62.7059C100.456 61.9047 101.224 61.2475 101.445 60.7344C101.727 60.199 101.344 59.9302 100.296 59.9274C99.3814 59.9252 98.2488 60.157 96.8976 60.6231C95.5685 61.0892 94.1476 61.7677 92.6349 62.6586C91.576 63.2826 90.8878 63.8067 90.5714 64.2311C90.3149 64.6332 90.2615 64.9685 90.4109 65.2371C90.6205 65.4834 91.0005 65.775 91.5504 66.1113C92.3135 66.5597 92.7969 67.0078 93.0014 67.4552C93.2057 67.9028 92.8975 68.573 92.0773 69.4664C91.2568 70.3599 89.6166 71.5325 87.1554 72.9844C85.0338 74.236 82.7379 75.3985 80.2676 76.4723C77.7956 77.5466 75.3802 78.4085 73.0212 79.0582C70.6988 79.6859 68.672 80 66.9408 80Z" fill="#EFEFEF"/>
<path d="M135.061 56.4765L128.713 60.231L122.53 60.216L89.4507 79.7649H84.752L117.87 60.2047L111.67 60.1895L118.045 56.4275L135.061 56.4765Z" fill="#EFEFEF"/>
<path d="M120.871 75.3198L111.607 75.3145L102.552 79.7654L97.6338 79.7652L145.358 56.473L150.747 56.4885L119.836 79.7659L114.905 79.7657L120.871 75.3198ZM125.913 71.581L138.963 61.8564L119.192 71.574L125.913 71.581Z" fill="#EFEFEF"/>
<path d="M141.524 68.0963C145.371 65.8137 149.31 63.778 153.342 61.9882C157.429 60.1785 161.186 58.7799 164.615 57.7916C168.1 56.7824 170.938 56.2812 173.129 56.2875C175.691 56.295 176.823 56.9622 176.527 58.289C176.231 59.6159 174.503 61.4486 171.34 63.7887L166.044 63.778C167.374 62.6729 168.02 61.8437 167.983 61.2898C167.968 60.7359 167.335 60.4576 166.084 60.4546C164.746 60.4513 163.01 60.7684 160.878 61.4063C158.804 62.0225 156.502 62.9047 153.972 64.0535C151.462 65.2028 148.901 66.5527 146.29 68.1033C143.714 69.6327 141.723 70.9861 140.316 72.1629C138.969 73.3177 138.272 74.2177 138.226 74.8626C138.239 75.4853 138.92 75.7971 140.267 75.7976C141.526 75.7984 143.097 75.5213 144.979 74.9669C146.92 74.3905 149.087 73.548 151.48 72.44L156.795 72.445C152.04 74.8159 147.571 76.6679 143.39 77.9997C139.264 79.3106 135.896 79.9665 133.286 79.9665C131.073 79.9665 129.913 79.4656 129.805 78.4638C129.758 77.4396 130.731 76.0264 132.725 74.225C134.74 72.4245 137.674 70.3812 141.524 68.0963Z" fill="#EFEFEF"/>
<path d="M161.454 79.7669L170.417 69.4342L153.074 79.7667H148.448L187.309 56.6273L191.89 56.6406L174.532 66.9826L200.189 56.6646L205.701 56.6806L177.132 68.0821L167.283 79.7672L161.454 79.7669Z" fill="#EFEFEF"/>
</svg>
