<svg width="251" height="245" viewBox="0 0 251 245" fill="none" xmlns="http://www.w3.org/2000/svg">
<path d="M160 70L17.5 70C7.83502 70 0 62.165 0 52.5C0 42.835 7.83502 35 17.5 35L160 35V70Z" fill="#324A5F"/>
<path d="M160 140H57.5C47.835 140 40 132.165 40 122.5C40 112.835 47.835 105 57.5 105L160 105V140Z" fill="#324A5F"/>
<path d="M160 210H97.5C87.835 210 80 202.165 80 192.5C80 182.835 87.835 175 97.5 175H160V210Z" fill="#324A5F"/>
<path d="M91 0H233.5C243.165 0 251 7.83502 251 17.5C251 27.165 243.165 35 233.5 35H91V0Z" fill="#1B2A41"/>
<path d="M91 70H193.5C203.165 70 211 77.835 211 87.5C211 97.165 203.165 105 193.5 105H91V70Z" fill="#1B2A41"/>
<path d="M91 140H153.5C163.165 140 171 147.835 171 157.5C171 167.165 163.165 175 153.5 175H91V140Z" fill="#1B2A41"/>
<path d="M91 210H113.5C123.165 210 131 217.835 131 227.5C131 237.165 123.165 245 113.5 245H91V210Z" fill="#1B2A41"/>
</svg>
