<svg width="119" height="122" viewBox="0 0 119 122" fill="none" xmlns="http://www.w3.org/2000/svg">
<path d="M110.744 74.3021C96.9939 77.1448 96.0484 72.4793 96.0484 72.4793C110.566 50.8903 116.635 23.4863 111.398 16.7793C97.1099 -1.51621 72.3771 7.13643 71.9642 7.3607L71.8315 7.38479C69.1148 6.8195 66.0749 6.48311 62.6578 6.42704C56.4365 6.3251 51.717 8.06175 48.1357 10.7835C48.1357 10.7835 4.01468 -7.43275 6.067 33.6935C6.50345 42.4425 18.5797 99.894 32.9835 82.541C38.2481 76.1954 43.3352 70.8302 43.3352 70.8302C45.8615 72.5122 48.8861 73.3703 52.0568 73.0622L52.3032 72.8528C52.2265 73.6405 52.2616 74.411 52.4017 75.3234C48.691 79.4782 49.7816 80.2076 42.3639 81.738C34.8578 83.2884 39.2671 86.0481 42.1461 86.77C45.6363 87.6444 53.7106 88.8834 59.1662 81.2292L58.9489 82.1027C60.4025 83.2699 61.4233 89.6938 61.2523 95.5176C61.0812 101.341 60.967 105.339 62.1122 108.462C63.2584 111.585 64.3999 118.612 74.1515 116.518C82.2993 114.768 86.5219 110.233 87.1095 102.669C87.5261 97.2909 88.4697 98.086 88.5289 93.2778L89.2857 91.0018C90.1582 83.7119 89.4244 81.3599 94.4441 82.4539L95.6646 82.5614C99.3587 82.7296 104.195 81.9655 107.033 80.6436C113.144 77.8014 116.769 73.0553 110.743 74.3021H110.744Z" fill="#336791"/>
<path d="M50.7184 37.606C49.4793 37.4332 48.3572 37.5931 47.7894 38.024C47.4704 38.2663 47.3715 38.5471 47.3447 38.7403C47.2735 39.2523 47.6313 39.8185 47.8514 40.1105C48.4737 40.9371 49.3827 41.5051 50.2824 41.6302C50.4127 41.6488 50.5427 41.6571 50.6717 41.6571C52.1719 41.6571 53.5363 40.4862 53.6565 39.6221C53.8068 38.5397 52.239 37.8182 50.7184 37.6065V37.606ZM91.7667 37.6403C91.6483 36.7919 90.142 36.5501 88.7125 36.7493C87.2848 36.9485 85.9005 37.5944 86.0161 38.4447C86.1086 39.1059 87.3 40.2346 88.7101 40.2346C88.8294 40.2346 88.9496 40.2268 89.0708 40.2096C90.0121 40.0789 90.7028 39.4798 91.0311 39.1346C91.5304 38.6083 91.8198 38.0217 91.7667 37.6403Z" fill="white"/>
<path d="M115.319 73.9793C114.795 72.3904 113.108 71.8793 110.304 72.4595C101.98 74.1813 98.9984 72.9886 98.0196 72.2663C104.49 62.3876 109.813 50.4461 112.685 39.3048C114.045 34.0272 114.796 29.1258 114.858 25.1308C114.926 20.7461 114.18 17.5239 112.643 15.5556C106.447 7.62072 97.353 3.36436 86.3447 3.2476C78.7766 3.16234 72.3825 5.10332 71.1429 5.64915C68.5326 4.9986 65.6869 4.5992 62.5887 4.54823C56.9075 4.45602 51.9966 5.8192 47.9307 8.59793C46.1646 7.93904 41.6004 6.36874 36.0186 5.46752C26.3686 3.91065 18.7003 5.09035 13.228 8.97556C6.69841 13.6119 3.68396 21.8994 4.26789 33.6074C4.46439 37.5463 6.70396 49.6639 10.2381 61.2686C14.8901 76.5425 19.9472 85.1891 25.2678 86.968C25.8906 87.176 26.6086 87.3215 27.4006 87.3215C29.3415 87.3215 31.7211 86.4448 34.197 83.4618C37.2168 79.8312 40.3405 76.2888 43.5644 72.839C45.656 73.964 47.9539 74.5923 50.3039 74.6553C50.3086 74.7169 50.3146 74.7785 50.3201 74.8397C49.9156 75.3232 49.5194 75.8136 49.1319 76.3109C47.5035 78.3825 47.1646 78.8139 41.9231 79.8953C40.4321 80.2039 36.4721 81.0218 36.4139 83.8037C36.351 86.8433 41.0951 88.1199 41.6355 88.2551C43.5191 88.7278 45.3338 88.9608 47.0643 88.9608C51.273 88.9608 54.9768 87.5745 57.9367 84.8921C57.8456 95.7281 58.2964 106.406 59.5946 109.659C60.658 112.322 63.2554 118.831 71.4601 118.83C72.664 118.83 73.9891 118.69 75.4469 118.377C84.0098 116.537 87.7284 112.744 89.1668 104.382C89.9366 99.9131 91.2575 89.2416 91.8789 83.5174C93.1901 83.9274 94.8781 84.1151 96.7029 84.1146C100.509 84.1146 104.901 83.3042 107.655 82.0231C110.749 80.583 116.332 77.0494 115.319 73.9793ZM94.9275 35.2986C94.8993 36.9884 94.6672 38.5226 94.4213 40.124C94.1563 41.8462 93.8826 43.6269 93.8137 45.7884C93.7458 47.8921 94.0079 50.0791 94.2613 52.1943C94.7736 56.4664 95.2992 60.8645 93.2645 65.2043C92.9265 64.6041 92.6254 63.9837 92.3629 63.3467C92.11 62.7323 91.5608 61.7454 90.8002 60.3794C87.8417 55.062 80.9136 42.6098 84.4602 37.5287C85.5166 36.0163 88.1977 34.4613 94.9275 35.2986ZM86.77 6.66945C96.6336 6.88769 104.436 10.5857 109.96 17.6602C114.197 23.0865 109.531 47.7772 96.0251 69.0779C95.8893 68.9048 95.7527 68.7323 95.6155 68.5604L95.4444 68.3463C98.9346 62.5697 98.2522 56.8542 97.6447 51.787C97.395 49.7075 97.1592 47.7433 97.2193 45.8983C97.2813 43.9429 97.5393 42.2656 97.7889 40.6438C98.0955 38.6454 98.4075 36.5775 98.3215 34.1398C98.3858 33.884 98.4117 33.5819 98.378 33.2233C98.1583 30.8856 95.4953 23.8895 90.0674 17.5573C87.0983 14.0938 82.7685 10.2178 76.8565 7.60357C79.3994 7.07535 82.8766 6.58281 86.77 6.66945ZM31.5769 81.2785C28.8491 84.5655 26.9655 83.9353 26.346 83.7287C22.3098 82.3794 17.6263 73.8296 13.4971 60.2719C9.92415 48.5408 7.83623 36.7443 7.67071 33.4364C7.14919 22.9748 9.67957 15.684 15.192 11.7659C24.1633 5.39014 38.9128 9.20631 44.8395 11.1417C44.7545 11.2261 44.6657 11.3048 44.5816 11.3906C34.8558 21.234 35.0865 38.0518 35.1105 39.08C35.1096 39.4767 35.1429 40.0382 35.1882 40.8106C35.3556 43.6394 35.6672 48.904 34.835 54.866C34.062 60.4063 35.7661 65.8289 39.5097 69.7438C39.8939 70.1448 40.2977 70.5264 40.7196 70.8873C39.0534 72.6758 35.4319 76.631 31.5769 81.2785ZM41.9698 67.3811C38.9526 64.2257 37.5822 59.8368 38.2096 55.3386C39.088 49.0407 38.7639 43.5555 38.5896 40.6086C38.5651 40.1962 38.5434 39.8348 38.5309 39.5499C39.9517 38.2872 46.5359 34.7519 51.2314 35.8301C53.3739 36.3217 54.6795 37.784 55.2223 40.2991C58.0315 53.3207 55.594 58.7479 53.6355 63.1095C53.2319 64.0079 52.8505 64.8572 52.525 65.7358L52.2726 66.415C51.6336 68.1322 51.039 69.7289 50.6706 71.245C47.4629 71.2357 44.3425 69.8624 41.9698 67.3807V67.3811ZM42.4622 84.9422C41.5255 84.7077 40.6831 84.3004 40.1889 83.9627C40.6017 83.768 41.3364 83.503 42.6106 83.2398C48.7768 81.9679 49.7292 81.0699 51.8088 78.4237C52.2855 77.8167 52.826 77.1291 53.5745 76.2914L53.5754 76.2905C54.6901 75.0394 55.2001 75.2516 56.1248 75.6362C56.8742 75.9467 57.6043 76.8882 57.9002 77.9242C58.0403 78.4135 58.1974 79.3421 57.6829 80.0649C53.3387 86.1608 47.0084 86.0825 42.4622 84.9422ZM74.733 115.038C67.1895 116.658 64.5186 112.8 62.7584 108.391C61.6225 105.544 61.064 92.7061 61.4602 78.5289C61.4653 78.3403 61.4384 78.1582 61.3867 77.9868C61.3403 77.6483 61.2699 77.3135 61.1758 76.985C60.5868 74.9222 59.1513 73.1967 57.429 72.4812C56.7448 72.1972 55.4891 71.6759 53.98 72.0628C54.3018 70.7339 54.8598 69.2331 55.465 67.6082L55.7188 66.9247C56.0046 66.1542 56.3633 65.3558 56.7425 64.5107C58.792 59.9476 61.5989 53.6974 58.5525 39.5777C57.4115 34.289 53.6009 31.7062 47.8244 32.3063C44.3615 32.6654 41.1931 34.0656 39.6128 34.8686C39.273 35.041 38.9623 35.2078 38.6719 35.37C39.113 30.0414 40.7793 20.083 47.0125 13.7824C50.9373 9.81608 56.1641 7.85703 62.5323 7.96267C75.0802 8.1684 83.1268 14.622 87.6679 20.0001C91.5811 24.6341 93.7 29.3024 94.5456 31.8202C88.1861 31.172 83.861 32.43 81.6686 35.5715C76.8986 42.405 84.278 55.668 87.8246 62.0424C88.4751 63.2105 89.0364 64.2201 89.213 64.6492C90.3679 67.4543 91.8631 69.3272 92.9547 70.6941C93.2895 71.113 93.614 71.5193 93.8609 71.8742C91.9348 72.4307 88.4751 73.7165 88.7904 80.1437C88.5361 83.3686 86.7279 98.4674 85.8093 103.802C84.5965 110.85 82.0088 113.474 74.733 115.038V115.038ZM106.22 78.926C104.251 79.8421 100.955 80.5292 97.8236 80.677C94.3653 80.8392 92.6047 80.2887 92.1905 79.95C91.9963 75.9448 93.4836 75.5264 95.0579 75.0834C95.3053 75.0139 95.5466 74.9458 95.7796 74.8643C95.9243 74.9824 96.0829 75.0996 96.2568 75.2146C99.0363 77.0531 103.994 77.2515 110.993 75.8035L111.07 75.7882C110.126 76.6727 108.511 77.8598 106.22 78.926Z" fill="#EFEFEF"/>
</svg>
