<svg width="393" height="212" viewBox="0 0 393 212" fill="none" xmlns="http://www.w3.org/2000/svg">
<path d="M314.472 13.1902H353.736V154.755C353.736 165.598 344.946 174.387 334.104 174.387C323.262 174.387 314.472 165.598 314.472 154.755V13.1902Z" fill="#EFEFEF"/>
<path d="M235.945 13.1902H275.209V192.368C275.209 203.211 266.419 212 255.577 212C244.734 212 235.945 203.211 235.945 192.368V13.1902Z" fill="#EFEFEF"/>
<path d="M157.417 13.1902H196.681V124.051C196.681 134.894 187.891 143.683 177.049 143.683C166.206 143.683 157.417 134.894 157.417 124.051V13.1902Z" fill="#EFEFEF"/>
<path d="M78.8896 13.1902H118.153V72.6217C118.153 83.4641 109.364 92.2536 98.5216 92.2536C87.6792 92.2536 78.8896 83.4641 78.8896 72.6217V13.1902Z" fill="#EFEFEF"/>
<path d="M0.361816 13.1902H39.6256V31.9386C39.6256 42.781 30.8361 51.5705 19.9937 51.5705C9.15132 51.5705 0.361816 42.781 0.361816 31.9386V13.1902Z" fill="#EFEFEF"/>
<path d="M78.8892 19.1902L39.6254 19.1902C39.6254 8.59176 48.2171 4.3869e-05 58.8155 4.3869e-05H59.699C70.2974 4.3869e-05 78.8892 8.59176 78.8892 19.1902Z" fill="#1B2A41"/>
<path d="M157.417 19.1902L118.153 19.1902C118.153 8.59176 126.745 4.3869e-05 137.343 4.3869e-05H138.227C148.825 4.3869e-05 157.417 8.59176 157.417 19.1902Z" fill="#1B2A41"/>
<path d="M235.944 19.1902L196.681 19.1902C196.681 8.59176 205.272 4.3869e-05 215.871 4.3869e-05H216.754C227.353 4.3869e-05 235.944 8.59176 235.944 19.1902Z" fill="#1B2A41"/>
<path d="M314.472 19.1902L275.208 19.1902C275.208 8.59176 283.8 4.3869e-05 294.399 4.3869e-05H295.282C305.88 4.3869e-05 314.472 8.59176 314.472 19.1902Z" fill="#1B2A41"/>
<path d="M393 19.1902L353.736 19.1902C353.736 8.59176 362.327 4.3869e-05 372.926 4.3869e-05H373.809C384.408 4.3869e-05 393 8.59176 393 19.1902Z" fill="#1B2A41"/>
</svg>
