<svg width="327" height="101" viewBox="0 0 327 101" fill="none" xmlns="http://www.w3.org/2000/svg">
<path d="M323.049 0H166.239C164.446 0 162.686 0.482261 161.143 1.39626L2.42147 95.4189C-0.204014 96.9741 0.898901 101 3.95046 101H160.76C162.554 101 164.314 100.518 165.857 99.6037L324.578 5.58112C327.204 4.02585 326.101 0 323.049 0Z" fill="#1D2D44"/>
<path d="M178.152 27.0675L161.277 37.0896C159.422 38.1915 158.726 39.0423 159.19 39.6413C159.68 40.2246 161.244 40.5239 163.88 40.5393C166.552 40.5549 169.096 40.2799 171.511 39.7149C173.95 39.1348 176.092 38.2954 177.936 37.1967L194.711 27.2032L202.925 27.2705L186.239 37.2265C183.933 38.6019 181.214 39.7649 178.08 40.7157C175.008 41.6523 171.793 42.3542 168.435 42.8214C165.112 43.2892 161.896 43.5151 158.785 43.4986C155.711 43.4823 153.315 43.2263 151.601 42.7301C149.925 42.2338 149.156 41.5066 149.294 40.5487C149.458 39.5752 150.707 38.3966 153.04 37.0132L169.925 27L178.152 27.0675Z" fill="#EFEFEF"/>
<path d="M218.892 27.4014L191.974 43.5107L183.785 43.4671L210.783 27.3349L218.892 27.4014Z" fill="#EFEFEF"/>
<path d="M115.337 57.0808L98.0734 67.3111C96.1754 68.4358 95.4629 69.3002 95.9368 69.9039C96.4376 70.4914 98.0365 70.7859 100.732 70.7873C103.465 70.7887 106.066 70.4969 108.536 69.9124C111.031 69.3125 113.221 68.4516 115.108 67.3302L132.268 57.1299L140.666 57.1544L123.597 67.316C121.239 68.7198 118.458 69.9112 115.253 70.8898C112.11 71.8539 108.822 72.5813 105.388 73.0719C101.99 73.5629 98.7009 73.8088 95.5201 73.8088C92.3762 73.8088 89.9268 73.5626 88.174 73.0697C86.4604 72.5765 85.6743 71.8448 85.816 70.8749C85.9846 69.8892 87.2628 68.6898 89.6494 67.2777L106.924 57.0564L115.337 57.0808Z" fill="#EFEFEF"/>
<path d="M146.011 73.6436L146.307 68.0968L128.859 73.6431L119.406 73.6427L146.465 65.3357L146.861 57.1723L156.4 57.1999L156.145 62.7115L173.326 57.2491L182.602 57.276L155.988 65.4676L155.555 73.6438L146.011 73.6436Z" fill="#EFEFEF"/>
</svg>
