<svg width="134" height="47" viewBox="0 0 134 47" fill="none">
<path d="M93.1522 0.0675488L76.2773 10.0896C74.422 11.1915 73.726 12.0423 74.1899 12.6413C74.6799 13.2246 76.2438 13.5239 78.8796 13.5393C81.5525 13.5549 84.0962 13.2799 86.5113 12.7149C88.9504 12.1348 91.0917 11.2954 92.9359 10.1967L109.711 0.203174L117.925 0.270547L101.239 10.2265C98.9333 11.6019 96.2143 12.7649 93.0802 13.7157C90.0076 14.6523 86.7927 15.3542 83.4348 15.8214C80.1124 16.2892 76.8958 16.5151 73.7852 16.4986C70.7107 16.4823 68.3155 16.2263 66.601 15.7301C64.9249 15.2338 64.1557 14.5066 64.2935 13.5487C64.4576 12.5752 65.7068 11.3966 68.0396 10.0132L84.9249 0L93.1522 0.0675488Z" fill="#EFEFEF"/>
<path d="M133.892 0.40138L106.974 16.5107L98.7847 16.4671L125.783 0.3349L133.892 0.40138Z" fill="#EFEFEF"/>
<path d="M30.3367 30.0808L13.0734 40.3111C11.1754 41.4358 10.4629 42.3002 10.9368 42.9039C11.4376 43.4914 13.0365 43.7859 15.7319 43.7873C18.4651 43.7887 21.0664 43.4969 23.5364 42.9124C26.0309 42.3125 28.2212 41.4516 30.1078 40.3302L47.2676 30.1299L55.666 30.1544L38.5973 40.316C36.2392 41.7198 33.4581 42.9112 30.2526 43.8898C27.1101 44.8539 23.8222 45.5813 20.3882 46.0719C16.9904 46.5629 13.7009 46.8088 10.5201 46.8088C7.37617 46.8088 4.92684 46.5626 3.17402 46.0697C1.46041 45.5765 0.674295 44.8448 0.816047 43.8749C0.984587 42.8892 2.26284 41.6898 4.64937 40.2777L21.9239 30.0564L30.3367 30.0808Z" fill="#EFEFEF"/>
<path d="M61.0109 46.6436L61.307 41.0968L43.8591 46.6431L34.4058 46.6427L61.4651 38.3357L61.8608 30.1723L71.3999 30.1999L71.1448 35.7115L88.3261 30.2491L97.6017 30.276L70.9876 38.4676L70.5549 46.6438L61.0109 46.6436Z" fill="#EFEFEF"/>
</svg>
