<svg width="66" height="66" viewBox="0 0 66 66" fill="none" xmlns="http://www.w3.org/2000/svg">
<path d="M61.5728 17.2428C58.6219 12.1868 54.6192 8.18386 49.5635 5.23323C44.5072 2.28245 38.9871 0.807434 32.9995 0.807434C27.0126 0.807434 21.4907 2.2829 16.4354 5.23323C11.3793 8.18371 7.37673 12.1868 4.42579 17.2428C1.47532 22.2988 0 27.8199 0 33.806C0 40.9967 2.09792 47.4628 6.29481 53.2059C10.4912 58.9494 15.9124 62.9237 22.5579 65.1292C23.3314 65.2728 23.9041 65.1718 24.2764 64.8289C24.6489 64.4854 24.8349 64.0553 24.8349 63.5403C24.8349 63.4544 24.8275 62.6813 24.8132 61.2201C24.7985 59.7589 24.7916 58.4842 24.7916 57.3966L23.8032 57.5676C23.1731 57.683 22.3782 57.7319 21.4185 57.7181C20.4592 57.7047 19.4634 57.6041 18.4323 57.4172C17.4008 57.232 16.4414 56.8023 15.5533 56.1291C14.6657 55.4559 14.0356 54.5748 13.6631 53.487L13.2334 52.4982C12.947 51.84 12.4962 51.1087 11.8802 50.3072C11.2642 49.5049 10.6413 48.961 10.0112 48.6746L9.71032 48.4592C9.50986 48.3161 9.32385 48.1435 9.15183 47.9432C8.97996 47.7429 8.85129 47.5424 8.76535 47.3416C8.67927 47.1407 8.75061 46.9759 8.98011 46.8467C9.20962 46.7174 9.62439 46.6546 10.2262 46.6546L11.0853 46.783C11.6582 46.8978 12.3669 47.2408 13.2122 47.8141C14.0571 48.3868 14.7516 49.1315 15.296 50.0477C15.9552 51.2225 16.7493 52.1176 17.6808 52.7336C18.6114 53.3496 19.5498 53.6571 20.4949 53.6571C21.44 53.6571 22.2563 53.5854 22.9441 53.4429C23.6311 53.2996 24.2757 53.0843 24.8775 52.798C25.1353 50.878 25.8372 49.403 26.9826 48.3719C25.35 48.2004 23.8823 47.942 22.5785 47.5984C21.2755 47.2544 19.929 46.696 18.5399 45.9219C17.1501 45.1488 15.9972 44.1887 15.0808 43.0435C14.1643 41.8976 13.4121 40.3932 12.8253 38.5317C12.2382 36.6695 11.9446 34.5213 11.9446 32.0866C11.9446 28.6199 13.0763 25.6699 15.3393 23.2348C14.2792 20.6285 14.3793 17.7068 15.6399 14.4699C16.4706 14.2118 17.7026 14.4055 19.3352 15.0498C20.968 15.6944 22.1636 16.2465 22.923 16.7044C23.6824 17.162 24.2909 17.5498 24.7493 17.8644C27.4138 17.1199 30.1635 16.7475 32.9992 16.7475C35.8348 16.7475 38.5851 17.1199 41.2498 17.8644L42.8826 16.8336C43.9991 16.1459 45.3176 15.5156 46.8349 14.9426C48.3531 14.37 49.514 14.2123 50.3165 14.4704C51.605 17.7074 51.7198 20.629 50.6595 23.2353C52.9223 25.6703 54.0545 28.6211 54.0545 32.087C54.0545 34.5218 53.7598 36.6767 53.1736 38.5533C52.5867 40.4301 51.8281 41.933 50.8974 43.065C49.9657 44.1969 48.8053 45.1494 47.4163 45.9223C46.0269 46.6959 44.6799 47.2542 43.3769 47.5982C42.0733 47.9423 40.6056 48.2008 38.973 48.3727C40.462 49.6612 41.2066 51.6952 41.2066 54.4737V63.5391C41.2066 64.0541 41.3857 64.4841 41.7442 64.8277C42.1022 65.1706 42.6677 65.2716 43.4412 65.1279C50.0876 62.9227 55.5087 58.9482 59.705 53.2047C63.9009 47.4616 65.9995 40.9955 65.9995 33.8048C65.998 27.8194 64.522 22.2988 61.5728 17.2428Z" fill="#EFEFEF"/>
</svg>
