<svg width="66" height="66" viewBox="0 0 66 66" fill="none" xmlns="http://www.w3.org/2000/svg">
<path d="M33 0C14.7758 0 0 14.7758 0 33C0 51.2243 14.7758 66 33 66C51.2243 66 66 51.2243 66 33C66 14.7758 51.2243 0 33 0ZM27.5 44H22V27.5H27.5V44ZM24.75 25.0498C23.0807 25.0498 21.725 23.6857 21.725 22C21.725 20.317 23.078 18.9502 24.75 18.9502C26.422 18.9502 27.775 20.317 27.775 22C27.775 23.6857 26.4193 25.0498 24.75 25.0498ZM46.75 44H41.2555V36.1322C41.2555 30.9595 35.75 31.3967 35.75 36.1322V44H30.25V27.5H35.75V30.5058C38.148 26.0618 46.75 25.7318 46.75 34.7627V44Z" fill="#EFEFEF"/>
</svg>
